<svg width="64" height="64" viewBox="0 0 64 64" fill="none" xmlns="http://www.w3.org/2000/svg">
<g filter="url(#filter0_d_95_2130)">
<path fill-rule="evenodd" clip-rule="evenodd" d="M12.2856 8C11.7892 8 11.3465 8.34411 11.1758 8.86159L8.14447 18.0699C8.04876 18.3611 7.99999 18.6656 8 18.9722V22.6352C8 24.7065 9.51173 26.3876 11.3768 26.3876C13.2418 26.3876 14.7548 24.7065 14.7548 22.6352C14.7548 24.7078 16.2666 26.3876 18.1316 26.3876C19.9966 26.3876 21.5097 24.7065 21.5097 22.6352C21.5097 24.7078 23.0214 26.3876 24.8864 26.3876C26.7514 26.3876 28.2619 24.7091 28.2645 22.6379C28.2645 24.7091 29.7762 26.3876 31.6412 26.3876C33.5063 26.3876 35.018 24.7065 35.018 22.6352C35.018 24.7078 36.531 26.3876 38.3961 26.3876C40.2611 26.3876 41.7715 24.7091 41.7728 22.6379C41.7741 24.7091 43.2859 26.3876 45.1509 26.3876C47.0159 26.3876 48.5276 24.7065 48.5276 22.6352C48.5276 24.7078 50.0394 26.3876 51.9057 26.3876C53.7708 26.3876 55.2825 24.7065 55.2825 22.6352V18.9722C55.2825 18.6656 55.2337 18.3611 55.138 18.0699L52.1067 8.86291C51.9359 8.34411 51.4933 8 50.9968 8H12.2856Z" fill="#FCE4D4"/>
<path d="M48.5276 22.6352H48.0276C48.0276 24.4814 46.6914 25.8876 45.1509 25.8876C43.61 25.8876 42.274 24.4835 42.2728 22.6375L41.2728 22.6376C41.2717 24.4837 39.9367 25.8876 38.3961 25.8876C36.8552 25.8876 35.518 24.4823 35.518 22.6352H35.018H34.518C34.518 24.4814 33.1817 25.8876 31.6412 25.8876C30.1005 25.8876 28.7648 24.4838 28.7645 22.6385C28.7645 22.6383 28.7645 22.6381 28.7645 22.6379L27.7645 22.6372C27.7621 24.4837 26.427 25.8876 24.8864 25.8876C23.3458 25.8876 22.0097 24.4826 22.0097 22.6352H21.5097H21.0097C21.0097 24.4811 19.6723 25.8876 18.1316 25.8876C16.591 25.8876 15.2548 24.4826 15.2548 22.6352H14.7548H14.2548C14.2548 24.4811 12.9175 25.8876 11.3768 25.8876C9.83627 25.8876 8.5 24.4814 8.5 22.6352V18.9722C8.49999 18.7187 8.54032 18.4668 8.61947 18.226L11.6506 9.01826C11.7628 8.67827 12.0325 8.5 12.2856 8.5H50.9968C51.2497 8.5 51.5194 8.67796 51.6317 9.01921L51.6318 9.01927L54.663 18.226C54.7422 18.4668 54.7825 18.7187 54.7825 18.9721V22.6352C54.7825 24.4814 53.4462 25.8876 51.9057 25.8876C50.3637 25.8876 49.0276 24.4824 49.0276 22.6352H48.5276Z" stroke="black" stroke-opacity="0.2"/>
<path fill-rule="evenodd" clip-rule="evenodd" d="M13.2537 28.0031V38.2082H9.97018C9.79601 38.2082 9.62898 38.2774 9.50582 38.4006C9.38266 38.5237 9.31348 38.6908 9.31348 38.8649V40.1783C9.31348 40.3525 9.38266 40.5195 9.50582 40.6427C9.62898 40.7659 9.79601 40.835 9.97018 40.835H53.3124C53.4866 40.835 53.6536 40.7659 53.7768 40.6427C53.9 40.5195 53.9691 40.3525 53.9691 40.1783V38.8649C53.9691 38.6908 53.9 38.5237 53.7768 38.4006C53.6536 38.2774 53.4866 38.2082 53.3124 38.2082H50.0289V28.0031C49.4791 27.784 48.9713 27.4716 48.5277 27.0798C48.1872 27.3801 47.8088 27.6344 47.4021 27.8363V38.2082H15.8805V27.8363C15.4738 27.6344 15.0954 27.3801 14.7549 27.0798C14.3136 27.4672 13.8093 27.7825 13.2537 28.0031ZM47.4021 25.4328C47.5138 25.3211 47.6189 25.2016 47.7174 25.0742H47.4021V25.4328ZM49.3381 25.0742C49.5367 25.3315 49.769 25.5608 50.0289 25.7559V25.0742H49.3381ZM13.2537 25.7559C13.5149 25.5623 13.7475 25.3328 13.9445 25.0742H13.2537V25.7559ZM15.5653 25.0742H15.8805V25.4328C15.7677 25.3203 15.6624 25.2005 15.5653 25.0742ZM11.2836 43.4618C11.1094 43.4618 10.9424 43.531 10.8192 43.6542C10.6961 43.7773 10.6269 43.9444 10.6269 44.1185V53.9691C10.6269 54.3174 10.7653 54.6515 11.0116 54.8978C11.2579 55.1441 11.5919 55.2825 11.9403 55.2825H51.3423C51.6907 55.2825 52.0247 55.1441 52.2711 54.8978C52.5174 54.6515 52.6557 54.3174 52.6557 53.9691V44.1185C52.6557 43.9444 52.5866 43.7773 52.4634 43.6542C52.3402 43.531 52.1732 43.4618 51.999 43.4618H11.2836Z" fill="#FCE4D4"/>
<path d="M13.2537 38.7082H13.7537V38.2082V28.331C14.1102 28.1631 14.4448 27.9591 14.7546 27.7248C14.9539 27.8757 15.163 28.0132 15.3805 28.1366V38.2082V38.7082H15.8805H47.4021H47.9021V38.2082V28.1366C48.1194 28.0133 48.3284 27.8759 48.5276 27.7252C48.8394 27.9612 49.175 28.1642 49.5289 28.3308V38.2082V38.7082H50.0289H53.3124C53.354 38.7082 53.3939 38.7247 53.4232 38.7541L53.7768 38.4006L53.4233 38.7541C53.4526 38.7835 53.4691 38.8234 53.4691 38.8649V40.1783C53.4691 40.2199 53.4526 40.2598 53.4233 40.2891L53.7768 40.6427L53.4232 40.2891C53.3939 40.3185 53.354 40.335 53.3124 40.335H9.97018C9.92862 40.335 9.88876 40.3185 9.85937 40.2891L9.50826 40.6403L9.85937 40.2891C9.82999 40.2598 9.81348 40.2199 9.81348 40.1783V38.8649C9.81348 38.8234 9.82999 38.7835 9.85937 38.7541L9.50826 38.403L9.85937 38.7541C9.88876 38.7247 9.92862 38.7082 9.97018 38.7082H13.2537ZM11.1728 44.0077C11.2022 43.9784 11.242 43.9618 11.2836 43.9618H51.999C52.0406 43.9618 52.0805 43.9784 52.1098 44.0077C52.1392 44.0371 52.1557 44.077 52.1557 44.1185V53.9691C52.1557 54.1848 52.07 54.3917 51.9175 54.5442C51.765 54.6968 51.5581 54.7825 51.3423 54.7825H11.9403C11.7246 54.7825 11.5177 54.6968 11.3651 54.5442C11.2126 54.3917 11.1269 54.1848 11.1269 53.9691V44.1185C11.1269 44.077 11.1434 44.0371 11.1728 44.0077Z" stroke="black" stroke-opacity="0.2"/>
<path d="M23.1037 34.2681H19.1635C18.8009 34.2681 18.5068 34.5621 18.5068 34.9248V37.5516C18.5068 37.9143 18.8009 38.2083 19.1635 38.2083H23.1037C23.4664 38.2083 23.7604 37.9143 23.7604 37.5516V34.9248C23.7604 34.5621 23.4664 34.2681 23.1037 34.2681Z" fill="#FCE4D4"/>
<path d="M19.1635 34.7681H23.1037C23.1903 34.7681 23.2604 34.8382 23.2604 34.9248V37.5516C23.2604 37.6381 23.1903 37.7083 23.1037 37.7083H19.1635C19.077 37.7083 19.0068 37.6381 19.0068 37.5516V34.9248C19.0068 34.8382 19.077 34.7681 19.1635 34.7681Z" stroke="black" stroke-opacity="0.2"/>
<path d="M25.7307 35.5815H21.7905C21.4278 35.5815 21.1338 35.8756 21.1338 36.2382V37.5516C21.1338 37.9143 21.4278 38.2083 21.7905 38.2083H25.7307C26.0934 38.2083 26.3874 37.9143 26.3874 37.5516V36.2382C26.3874 35.8756 26.0934 35.5815 25.7307 35.5815Z" fill="#FCE4D4"/>
<path d="M21.7905 36.0815H25.7307C25.8172 36.0815 25.8874 36.1517 25.8874 36.2382V37.5516C25.8874 37.6382 25.8172 37.7083 25.7307 37.7083H21.7905C21.7039 37.7083 21.6338 37.6382 21.6338 37.5516V36.2382C21.6338 36.1517 21.7039 36.0815 21.7905 36.0815Z" stroke="black" stroke-opacity="0.2"/>
<path d="M29.6713 38.2083C30.7593 38.2083 31.6414 37.3262 31.6414 36.2382C31.6414 35.1501 30.7593 34.2681 29.6713 34.2681C28.5832 34.2681 27.7012 35.1501 27.7012 36.2382C27.7012 37.3262 28.5832 38.2083 29.6713 38.2083Z" fill="#FCE4D4"/>
<path d="M31.1414 36.2382C31.1414 37.0501 30.4832 37.7083 29.6713 37.7083C28.8594 37.7083 28.2012 37.0501 28.2012 36.2382C28.2012 35.4263 28.8594 34.7681 29.6713 34.7681C30.4832 34.7681 31.1414 35.4263 31.1414 36.2382Z" stroke="black" stroke-opacity="0.2"/>
</g>
<defs>
<filter id="filter0_d_95_2130" x="0" y="0" width="63.2822" height="63.2825" filterUnits="userSpaceOnUse" color-interpolation-filters="sRGB">
<feFlood flood-opacity="0" result="BackgroundImageFix"/>
<feColorMatrix in="SourceAlpha" type="matrix" values="0 0 0 0 0 0 0 0 0 0 0 0 0 0 0 0 0 0 127 0" result="hardAlpha"/>
<feOffset/>
<feGaussianBlur stdDeviation="4"/>
<feComposite in2="hardAlpha" operator="out"/>
<feColorMatrix type="matrix" values="0 0 0 0 0.203922 0 0 0 0 0.235294 0 0 0 0 0.360784 0 0 0 1 0"/>
<feBlend mode="normal" in2="BackgroundImageFix" result="effect1_dropShadow_95_2130"/>
<feBlend mode="normal" in="SourceGraphic" in2="effect1_dropShadow_95_2130" result="shape"/>
</filter>
</defs>
</svg>
