<svg width="23" height="18" viewBox="0 0 23 18" fill="none" xmlns="http://www.w3.org/2000/svg">
<path d="M19.4704 1.64081C18.0041 0.987864 16.4325 0.505248 14.789 0.230819C14.7744 0.228044 14.7592 0.229833 14.7457 0.235936C14.7321 0.24204 14.7208 0.252157 14.7133 0.264886C14.5121 0.614073 14.2878 1.06925 14.1307 1.42884C12.3876 1.17167 10.6155 1.17167 8.87245 1.42884C8.6974 1.03032 8.50001 0.641728 8.28118 0.264886C8.27376 0.252 8.26254 0.241654 8.24901 0.235229C8.23549 0.228804 8.2203 0.226605 8.20547 0.228926C6.56294 0.503355 4.99132 0.985971 3.52415 1.63987C3.51153 1.6451 3.50083 1.65401 3.49348 1.66542C0.511238 5.99477 -0.306197 10.2172 0.0953328 14.3866C0.0964502 14.3968 0.0996601 14.4067 0.104767 14.4156C0.109874 14.4246 0.116772 14.4324 0.12504 14.4387C1.8657 15.6901 3.80717 16.6434 5.86817 17.2586C5.88253 17.263 5.8979 17.263 5.91226 17.2586C5.92662 17.2542 5.93931 17.2457 5.94866 17.234C6.39216 16.6483 6.78517 16.027 7.12355 15.3764C7.12824 15.3675 7.13095 15.3578 7.13148 15.3477C7.13202 15.3377 7.13037 15.3277 7.12664 15.3184C7.12291 15.3091 7.1172 15.3006 7.10989 15.2937C7.10258 15.2867 7.09384 15.2814 7.08426 15.278C6.46519 15.0478 5.86537 14.77 5.29031 14.4472C5.27997 14.4413 5.27127 14.4331 5.26497 14.4231C5.25867 14.4131 5.25497 14.4018 5.25421 14.3901C5.25345 14.3783 5.25565 14.3666 5.26061 14.3559C5.26557 14.3453 5.27314 14.336 5.28264 14.3289C5.40339 14.2409 5.52413 14.1491 5.63913 14.0573C5.64948 14.049 5.66195 14.0438 5.67515 14.0421C5.68835 14.0404 5.70175 14.0424 5.71388 14.0478C9.47715 15.7171 13.5528 15.7171 17.272 14.0478C17.2842 14.0421 17.2977 14.0399 17.3111 14.0414C17.3245 14.0429 17.3372 14.0481 17.3477 14.0563C17.4627 14.1491 17.5825 14.2409 17.7042 14.3289C17.7138 14.3358 17.7215 14.345 17.7266 14.3556C17.7317 14.3662 17.7341 14.3778 17.7335 14.3896C17.733 14.4013 17.7295 14.4127 17.7233 14.4227C17.7172 14.4328 17.7087 14.4412 17.6984 14.4472C17.1254 14.7727 16.5293 15.0481 15.9035 15.2771C15.8939 15.2805 15.8852 15.286 15.8779 15.293C15.8705 15.3001 15.8648 15.3086 15.8611 15.318C15.8574 15.3274 15.8558 15.3375 15.8563 15.3475C15.8568 15.3576 15.8595 15.3675 15.8643 15.3764C16.2092 16.0266 16.6041 16.6454 17.0382 17.2331C17.0472 17.2452 17.0598 17.2542 17.0742 17.2589C17.0886 17.2637 17.1041 17.2639 17.1187 17.2596C19.1832 16.646 21.1278 15.6923 22.8704 14.4387C22.8789 14.4328 22.8861 14.4252 22.8913 14.4164C22.8966 14.4076 22.9 14.3977 22.9011 14.3876C23.3802 9.56707 22.098 5.37872 19.5001 1.66731C19.4937 1.65525 19.4832 1.64585 19.4704 1.64081ZM7.68607 11.8477C6.55335 11.8477 5.61901 10.8361 5.61901 9.59546C5.61901 8.35391 6.53515 7.34325 7.68607 7.34325C8.84562 7.34325 9.77135 8.36242 9.75314 9.59546C9.75314 10.837 8.837 11.8477 7.68607 11.8477ZM15.3286 11.8477C14.1949 11.8477 13.2615 10.8361 13.2615 9.59546C13.2615 8.35391 14.1767 7.34325 15.3286 7.34325C16.4881 7.34325 17.4138 8.36242 17.3956 9.59546C17.3956 10.837 16.4891 11.8477 15.3286 11.8477Z" fill="white"/>
</svg>
