<svg width="22" height="18" viewBox="0 0 22 18" fill="none" xmlns="http://www.w3.org/2000/svg">
<path d="M21.7087 2.26443C20.9118 2.61121 20.0552 2.84658 19.1543 2.95467C20.0825 2.41008 20.7754 1.55551 21.1038 0.550405C20.2317 1.05833 19.2766 1.41699 18.2801 1.61079C17.6072 0.916258 16.7174 0.457383 15.7489 0.30541C14.7805 0.153437 13.7875 0.31687 12.9241 0.770333C12.0607 1.2238 11.3753 1.94192 10.9743 2.81321C10.5732 3.6845 10.479 4.66021 10.7061 5.58886C8.93543 5.50824 7.20201 5.0662 5.61838 4.29144C4.03474 3.51668 2.63627 2.4265 1.51373 1.09167C1.13354 1.7347 0.916167 2.4795 0.918788 3.27193C0.920721 3.98531 1.10357 4.68715 1.45112 5.3152C1.79866 5.94325 2.30015 6.47808 2.9111 6.87224C2.20401 6.85269 1.51198 6.66908 0.892604 6.33669L0.892788 6.3925C0.896026 7.39303 1.25489 8.36159 1.90848 9.13384C2.56207 9.90609 3.47014 10.4345 4.4786 10.6293C3.8233 10.8042 3.13575 10.8319 2.46788 10.7104C2.75507 11.5703 3.31143 12.3213 4.05908 12.8582C4.80673 13.3951 5.70824 13.691 6.63739 13.7045C5.06418 14.9145 3.1185 15.5746 1.11337 15.5783C0.758184 15.5796 0.40323 15.5606 0.0503403 15.5214C2.08987 16.7881 4.46136 17.4561 6.88107 17.4454C15.0721 17.4182 19.5281 10.8016 19.5092 5.07598C19.5086 4.88996 19.5032 4.7021 19.494 4.51611C20.3629 3.90026 21.1123 3.13874 21.7068 2.26722L21.7087 2.26443Z" fill="white"/>
</svg>
