<svg width="64" height="64" viewBox="0 0 64 64" fill="none" xmlns="http://www.w3.org/2000/svg">
<g filter="url(#filter0_d_95_2092)">
<path fill-rule="evenodd" clip-rule="evenodd" d="M12.2856 8C11.7892 8 11.3465 8.34411 11.1758 8.86159L8.14447 18.0699C8.04876 18.3611 7.99999 18.6656 8 18.9722V22.6352C8 24.7065 9.51173 26.3876 11.3768 26.3876C13.2418 26.3876 14.7548 24.7065 14.7548 22.6352C14.7548 24.7078 16.2666 26.3876 18.1316 26.3876C19.9966 26.3876 21.5097 24.7065 21.5097 22.6352C21.5097 24.7078 23.0214 26.3876 24.8864 26.3876C26.7514 26.3876 28.2619 24.7091 28.2645 22.6379C28.2645 24.7091 29.7762 26.3876 31.6412 26.3876C33.5063 26.3876 35.018 24.7065 35.018 22.6352C35.018 24.7078 36.531 26.3876 38.3961 26.3876C40.2611 26.3876 41.7715 24.7091 41.7728 22.6379C41.7741 24.7091 43.2859 26.3876 45.1509 26.3876C47.0159 26.3876 48.5276 24.7065 48.5276 22.6352C48.5276 24.7078 50.0394 26.3876 51.9057 26.3876C53.7708 26.3876 55.2825 24.7065 55.2825 22.6352V18.9722C55.2825 18.6656 55.2337 18.3611 55.138 18.0699L52.1067 8.86291C51.9359 8.34411 51.4933 8 50.9968 8H12.2856Z" fill="#2CFC3C"/>
<path fill-rule="evenodd" clip-rule="evenodd" d="M13.2537 28.0031V38.2082H9.97018C9.79601 38.2082 9.62898 38.2774 9.50582 38.4006C9.38266 38.5237 9.31348 38.6908 9.31348 38.8649V40.1783C9.31348 40.3525 9.38266 40.5195 9.50582 40.6427C9.62898 40.7659 9.79601 40.835 9.97018 40.835H53.3124C53.4866 40.835 53.6536 40.7659 53.7768 40.6427C53.9 40.5195 53.9691 40.3525 53.9691 40.1783V38.8649C53.9691 38.6908 53.9 38.5237 53.7768 38.4006C53.6536 38.2774 53.4866 38.2082 53.3124 38.2082H50.0289V28.0031C49.4791 27.784 48.9713 27.4716 48.5277 27.0798C48.1872 27.3801 47.8088 27.6344 47.4021 27.8363V38.2082H15.8805V27.8363C15.4738 27.6344 15.0954 27.3801 14.7549 27.0798C14.3136 27.4672 13.8093 27.7825 13.2537 28.0031ZM47.4021 25.4328C47.5138 25.3211 47.6189 25.2016 47.7174 25.0742H47.4021V25.4328ZM49.3381 25.0742C49.5367 25.3315 49.769 25.5608 50.0289 25.7559V25.0742H49.3381ZM13.2537 25.7559C13.5149 25.5623 13.7475 25.3328 13.9445 25.0742H13.2537V25.7559ZM15.5653 25.0742H15.8805V25.4328C15.7677 25.3203 15.6624 25.2005 15.5653 25.0742ZM11.2836 43.4618C11.1094 43.4618 10.9424 43.531 10.8192 43.6542C10.6961 43.7773 10.6269 43.9444 10.6269 44.1185V53.9691C10.6269 54.3174 10.7653 54.6515 11.0116 54.8978C11.2579 55.1441 11.5919 55.2825 11.9403 55.2825H51.3423C51.6907 55.2825 52.0247 55.1441 52.2711 54.8978C52.5174 54.6515 52.6557 54.3174 52.6557 53.9691V44.1185C52.6557 43.9444 52.5866 43.7773 52.4634 43.6542C52.3402 43.531 52.1732 43.4618 51.999 43.4618H11.2836Z" fill="#2CFC3C"/>
<path d="M23.1037 34.2681H19.1635C18.8009 34.2681 18.5068 34.5621 18.5068 34.9248V37.5516C18.5068 37.9143 18.8009 38.2083 19.1635 38.2083H23.1037C23.4664 38.2083 23.7604 37.9143 23.7604 37.5516V34.9248C23.7604 34.5621 23.4664 34.2681 23.1037 34.2681Z" fill="#2CFC3C"/>
<path d="M25.7307 35.5815H21.7905C21.4278 35.5815 21.1338 35.8756 21.1338 36.2382V37.5516C21.1338 37.9143 21.4278 38.2083 21.7905 38.2083H25.7307C26.0934 38.2083 26.3874 37.9143 26.3874 37.5516V36.2382C26.3874 35.8756 26.0934 35.5815 25.7307 35.5815Z" fill="#2CFC3C"/>
<path d="M29.6713 38.2083C30.7593 38.2083 31.6414 37.3262 31.6414 36.2382C31.6414 35.1501 30.7593 34.2681 29.6713 34.2681C28.5832 34.2681 27.7012 35.1501 27.7012 36.2382C27.7012 37.3262 28.5832 38.2083 29.6713 38.2083Z" fill="#2CFC3C"/>
</g>
<defs>
<filter id="filter0_d_95_2092" x="0" y="0" width="63.2822" height="63.2825" filterUnits="userSpaceOnUse" color-interpolation-filters="sRGB">
<feFlood flood-opacity="0" result="BackgroundImageFix"/>
<feColorMatrix in="SourceAlpha" type="matrix" values="0 0 0 0 0 0 0 0 0 0 0 0 0 0 0 0 0 0 127 0" result="hardAlpha"/>
<feOffset/>
<feGaussianBlur stdDeviation="4"/>
<feComposite in2="hardAlpha" operator="out"/>
<feColorMatrix type="matrix" values="0 0 0 0 0.141176 0 0 0 0 0.486275 0 0 0 0 0.141176 0 0 0 1 0"/>
<feBlend mode="normal" in2="BackgroundImageFix" result="effect1_dropShadow_95_2092"/>
<feBlend mode="normal" in="SourceGraphic" in2="effect1_dropShadow_95_2092" result="shape"/>
</filter>
</defs>
</svg>
