<svg width="64" height="64" viewBox="0 0 64 64" fill="none" xmlns="http://www.w3.org/2000/svg">
<g filter="url(#filter0_d_55_94)">
<path fill-rule="evenodd" clip-rule="evenodd" d="M12.2856 8.05499C11.7892 8.05499 11.3465 8.39981 11.1758 8.91834L8.14447 18.1454C8.04876 18.4372 7.99999 18.7423 8 19.0495V22.72C8 24.7955 9.51173 26.4801 11.3768 26.4801C13.2418 26.4801 14.7548 24.7955 14.7548 22.72C14.7548 24.7968 16.2666 26.4801 18.1316 26.4801C19.9966 26.4801 21.5097 24.7955 21.5097 22.72C21.5097 24.7968 23.0214 26.4801 24.8864 26.4801C26.7514 26.4801 28.2619 24.7981 28.2645 22.7227C28.2645 24.7981 29.7762 26.4801 31.6412 26.4801C33.5063 26.4801 35.018 24.7955 35.018 22.72C35.018 24.7968 36.531 26.4801 38.3961 26.4801C40.2611 26.4801 41.7715 24.7981 41.7728 22.7227C41.7741 24.7981 43.2859 26.4801 45.1509 26.4801C47.0159 26.4801 48.5276 24.7955 48.5276 22.72C48.5276 24.7968 50.0394 26.4801 51.9057 26.4801C53.7708 26.4801 55.2825 24.7955 55.2825 22.72V19.0495C55.2825 18.7423 55.2337 18.4372 55.138 18.1454L52.1067 8.91966C51.9359 8.3998 51.4933 8.05499 50.9968 8.05499H12.2856Z" fill="#220C65"/>
<path fill-rule="evenodd" clip-rule="evenodd" d="M13.2536 28.0989V38.3248H9.97009C9.79592 38.3248 9.62888 38.3941 9.50573 38.5175C9.38257 38.6409 9.31339 38.8083 9.31339 38.9828V40.2989C9.31339 40.4734 9.38257 40.6408 9.50573 40.7642C9.62888 40.8876 9.79592 40.9569 9.97009 40.9569H53.3124C53.4865 40.9569 53.6536 40.8876 53.7767 40.7642C53.8999 40.6408 53.9691 40.4734 53.9691 40.2989V38.9828C53.9691 38.8083 53.8999 38.6409 53.7767 38.5175C53.6536 38.3941 53.4865 38.3248 53.3124 38.3248H50.0289V28.0989C49.479 27.8793 48.9712 27.5663 48.5276 27.1737C48.1871 27.4746 47.8087 27.7294 47.402 27.9317V38.3248H15.8804V27.9317C15.4737 27.7294 15.0953 27.4746 14.7548 27.1737C14.3135 27.5619 13.8092 27.8778 13.2536 28.0989ZM47.402 25.5233C47.5137 25.4114 47.6188 25.2917 47.7173 25.164H47.402V25.5233ZM49.338 25.164C49.5366 25.4218 49.7689 25.6515 50.0289 25.847V25.164H49.338ZM13.2536 25.847C13.5148 25.6531 13.7474 25.4231 13.9444 25.164H13.2536V25.847ZM15.5652 25.164H15.8804V25.5233C15.7676 25.4106 15.6623 25.2906 15.5652 25.164ZM11.2835 43.5891C11.1093 43.5891 10.9423 43.6584 10.8191 43.7818C10.696 43.9052 10.6268 44.0726 10.6268 44.2471V54.1177C10.6268 54.4667 10.7652 54.8015 11.0115 55.0483C11.2578 55.2951 11.5919 55.4338 11.9402 55.4338H51.3423C51.6906 55.4338 52.0247 55.2951 52.271 55.0483C52.5173 54.8015 52.6557 54.4667 52.6557 54.1177V44.2471C52.6557 44.0726 52.5865 43.9052 52.4633 43.7818C52.3402 43.6584 52.1731 43.5891 51.999 43.5891H11.2835Z" fill="#220C65"/>
<path d="M23.1041 34.3765H19.1639C18.8012 34.3765 18.5072 34.6711 18.5072 35.0346V37.6667C18.5072 38.0301 18.8012 38.3248 19.1639 38.3248H23.1041C23.4668 38.3248 23.7608 38.0301 23.7608 37.6667V35.0346C23.7608 34.6711 23.4668 34.3765 23.1041 34.3765Z" fill="#220C65"/>
<path d="M25.7309 35.6926H21.7907C21.428 35.6926 21.134 35.9872 21.134 36.3507V37.6667C21.134 38.0302 21.428 38.3248 21.7907 38.3248H25.7309C26.0936 38.3248 26.3876 38.0302 26.3876 37.6667V36.3507C26.3876 35.9872 26.0936 35.6926 25.7309 35.6926Z" fill="#220C65"/>
<path d="M29.6711 38.3248C30.7592 38.3248 31.6412 37.4409 31.6412 36.3506C31.6412 35.2604 30.7592 34.3765 29.6711 34.3765C28.5831 34.3765 27.701 35.2604 27.701 36.3506C27.701 37.4409 28.5831 38.3248 29.6711 38.3248Z" fill="#220C65"/>
</g>
<defs>
<filter id="filter0_d_55_94" x="0" y="0.0549927" width="63.2825" height="63.3788" filterUnits="userSpaceOnUse" color-interpolation-filters="sRGB">
<feFlood flood-opacity="0" result="BackgroundImageFix"/>
<feColorMatrix in="SourceAlpha" type="matrix" values="0 0 0 0 0 0 0 0 0 0 0 0 0 0 0 0 0 0 127 0" result="hardAlpha"/>
<feOffset/>
<feGaussianBlur stdDeviation="4"/>
<feComposite in2="hardAlpha" operator="out"/>
<feColorMatrix type="matrix" values="0 0 0 0 0.937255 0 0 0 0 0.560784 0 0 0 0 0.72549 0 0 0 1 0"/>
<feBlend mode="normal" in2="BackgroundImageFix" result="effect1_dropShadow_55_94"/>
<feBlend mode="normal" in="SourceGraphic" in2="effect1_dropShadow_55_94" result="shape"/>
</filter>
</defs>
</svg>
