<svg width="45" height="64" viewBox="0 0 45 64" fill="none" xmlns="http://www.w3.org/2000/svg">
<g filter="url(#filter0_d_55_101)">
<path fill-rule="evenodd" clip-rule="evenodd" d="M9.81591 21.6264C8.73114 21.6264 7.85264 20.6963 8.0207 19.5974C9.07109 12.9216 14.0213 8.05499 22.6116 8.05499C31.2057 8.05499 37 13.3925 37 20.6727C37 25.9474 34.46 29.6523 30.1629 32.3407C25.9614 34.927 24.762 36.7284 24.762 40.2292V40.347C24.762 40.8674 24.5608 41.3665 24.2026 41.7345C23.8445 42.1025 23.3587 42.3093 22.8522 42.3093H19.9111C19.4079 42.3093 18.925 42.1053 18.5674 41.7415C18.2098 41.3777 18.0063 40.8836 18.0013 40.3666L17.9899 39.5817C17.8256 34.7897 19.8118 31.7284 24.2731 28.938C28.2073 26.4576 29.6091 24.4836 29.6091 20.9788C29.6091 17.1366 26.7138 14.3148 22.2525 14.3148C18.3986 14.3148 15.721 16.3909 14.8501 19.8172C14.598 20.814 13.7883 21.6264 12.7876 21.6264H9.81973H9.81591ZM21.3549 55.1507C23.7307 55.1507 25.5374 53.2904 25.5374 50.8729C25.5374 48.4474 23.7307 46.5871 21.3549 46.5871C19.0402 46.5871 17.203 48.4474 17.203 50.8689C17.203 53.2904 19.0402 55.1507 21.3549 55.1507Z" fill="#EF8FB9" fill-opacity="0.5" shape-rendering="crispEdges"/>
</g>
<defs>
<filter id="filter0_d_55_101" x="0" y="0.0549927" width="45" height="63.0957" filterUnits="userSpaceOnUse" color-interpolation-filters="sRGB">
<feFlood flood-opacity="0" result="BackgroundImageFix"/>
<feColorMatrix in="SourceAlpha" type="matrix" values="0 0 0 0 0 0 0 0 0 0 0 0 0 0 0 0 0 0 127 0" result="hardAlpha"/>
<feOffset/>
<feGaussianBlur stdDeviation="4"/>
<feComposite in2="hardAlpha" operator="out"/>
<feColorMatrix type="matrix" values="0 0 0 0 0.133333 0 0 0 0 0.0470588 0 0 0 0 0.396078 0 0 0 1 0"/>
<feBlend mode="normal" in2="BackgroundImageFix" result="effect1_dropShadow_55_101"/>
<feBlend mode="normal" in="SourceGraphic" in2="effect1_dropShadow_55_101" result="shape"/>
</filter>
</defs>
</svg>
